#N canvas 577 22 818 477 10;
#X declare -lib mrpeach;
#X obj 28 54 tgl 15 0 empty empty empty 17 7 0 10 -262144 -1 -1 1 1
;
#X obj 28 75 hid;
#X obj 28 103 route key abs;
#X obj -96 91 spigot;
#X obj -63 56 tgl 15 0 empty empty empty 17 7 0 10 -262144 -1 -1 0
1;
#X obj -96 115 print rawjoystick;
#X obj -98 175 spigot;
#X obj -65 140 tgl 15 0 empty empty empty 17 7 0 10 -262144 -1 -1 0
1;
#X obj -101 205 print routekey;
#X obj -96 7 import mrpeach;
#X obj 132 327 print output;
#X obj 222 161 t b f;
#X obj 481 348 packOSC;
#X obj 481 376 udpsend;
#X obj 481 405 tgl 15 0 empty empty empty 17 7 0 10 -262144 -1 -1 1
1;
#X msg 289 360 disconnect;
#X msg -45 322 sendtyped /joy_btn_0 i \$1;
#X obj -45 345 print output;
#X obj 133 303 spigot;
#X obj 181 288 tgl 15 0 empty empty empty 17 7 0 10 -262144 -1 -1 0
1;
#X obj 217 291 s oscout;
#X obj 481 314 r oscout;
#X obj -45 367 s oscout;
#X obj -45 299 int;
#X msg 61 47 open 4;
#N canvas 207 256 570 420 serin 0;
#X obj 286 61 cnv 15 30 15 empty \$0-open-canvas 4 4 8 0 14 -233017
-1 0;
#X obj 60 61 hradio 15 1 1 15 empty empty empty 0 -6 0 8 -225271 -1
-1 4;
#X obj 60 13 inlet;
#X msg 200 202 label \$1;
#X obj 200 180 makefilename %d;
#X obj 59 108 int;
#X obj 59 337 outlet;
#X msg 201 306 set \$1 \$2;
#X obj 59 266 trigger bang anything;
#X obj 201 286 list;
#X msg 60 210 open \$1;
#X obj 200 225 send \$0-open-canvas;
#X connect 1 0 5 0;
#X connect 2 0 1 0;
#X connect 3 0 11 0;
#X connect 4 0 3 0;
#X connect 5 0 4 0;
#X connect 5 0 10 0;
#X connect 7 0 6 0;
#X connect 8 0 6 0;
#X connect 8 1 9 0;
#X connect 9 0 7 0;
#X connect 10 0 8 0;
#X coords 0 -1 1 1 257 17 1 60 60;
#X restore 61 20 pd serin;
#X obj 24 137 route btn_0 btn_1;
#X obj 7 274 print output;
#X obj 7 296 s oscout;
#X obj 6 228 int;
#X msg 6 251 sendtyped /joy_btn_1 i \$1;
#X obj 175 137 route abs_x abs_y abs_rz;
#X obj 201 230 pack f f f;
#X msg 201 259 sendtyped /joy_xyz iii \$1 \$2 \$3;
#X obj 269 162 t b f;
#X msg 315 329 connect 192.168.1.43 12000;
#X connect 0 0 1 0;
#X connect 1 0 2 0;
#X connect 1 0 3 0;
#X connect 2 0 6 0;
#X connect 2 0 26 0;
#X connect 2 1 31 0;
#X connect 3 0 5 0;
#X connect 4 0 3 1;
#X connect 6 0 8 0;
#X connect 7 0 6 1;
#X connect 11 0 32 0;
#X connect 11 1 32 1;
#X connect 12 0 13 0;
#X connect 13 0 14 0;
#X connect 15 0 13 0;
#X connect 16 0 17 0;
#X connect 16 0 22 0;
#X connect 18 0 10 0;
#X connect 19 0 18 1;
#X connect 21 0 12 0;
#X connect 23 0 16 0;
#X connect 24 0 1 0;
#X connect 25 0 24 0;
#X connect 26 0 23 0;
#X connect 26 1 29 0;
#X connect 29 0 30 0;
#X connect 30 0 27 0;
#X connect 30 0 28 0;
#X connect 31 0 32 0;
#X connect 31 1 11 0;
#X connect 31 2 34 0;
#X connect 32 0 33 0;
#X connect 33 0 18 0;
#X connect 33 0 20 0;
#X connect 34 0 32 0;
#X connect 34 1 32 2;
#X connect 35 0 13 0;
